<?xml version="1.0" encoding="UTF-8" standalone="no"?>
<!-- Created with Inkscape (http://www.inkscape.org/) -->

<svg
   width="45.653828mm"
   height="25.199421mm"
   viewBox="0 0 45.653828 25.199421"
   version="1.1"
   id="svg1076"
   sodipodi:docname="xg_logo.svg"
   inkscape:version="1.1 (c4e8f9ed74, 2021-05-24)"
   xmlns:inkscape="http://www.inkscape.org/namespaces/inkscape"
   xmlns:sodipodi="http://sodipodi.sourceforge.net/DTD/sodipodi-0.dtd"
   xmlns="http://www.w3.org/2000/svg"
   xmlns:svg="http://www.w3.org/2000/svg">
  <sodipodi:namedview
     id="namedview2443"
     pagecolor="#ffffff"
     bordercolor="#666666"
     borderopacity="1.0"
     inkscape:pageshadow="2"
     inkscape:pageopacity="0.0"
     inkscape:pagecheckerboard="0"
     inkscape:document-units="mm"
     showgrid="false"
     inkscape:zoom="10.153094"
     inkscape:cx="86.229874"
     inkscape:cy="47.620953"
     inkscape:window-width="1904"
     inkscape:window-height="2108"
     inkscape:window-x="1924"
     inkscape:window-y="40"
     inkscape:window-maximized="1"
     inkscape:current-layer="svg1076" />
  <defs
     id="defs1073" />
  <g
     id="layer1">
    <path
       id="path900"
       style="fill:#ffffff;fill-opacity:1;fill-rule:nonzero;stroke:none;stroke-width:1.33333"
       d="M 78.195312 0.001953125 L 53.482422 27.693359 C 51.531755 29.942707 49.282698 29.942572 47.332031 27.642578 L 24.132812 0.041015625 L 2.7207031 0.041015625 C -0.87929687 0.041015625 -0.043415827 2.0025907 0.53125 2.6425781 C 0.67658417 2.8039262 32.53125 42.441406 32.53125 42.441406 C 35.631249 45.841394 35.331249 48.991655 32.53125 52.041016 L 0.93164062 91.841797 C 0.29431023 92.479139 -1.0684662 94.442175 1.5195312 95.242188 L 24.132812 95.242188 L 48.132812 66.441406 C 49.883482 64.141375 52.132815 63.692065 54.132812 66.441406 L 77.732422 95.242188 L 170.48242 95.242188 C 172.20634 95.218188 172.54259 94.855023 172.53125 93.429688 L 172.53125 1.3300781 C 172.61924 0.3927175 172.39372 -0.032062627 171.59375 0.001953125 L 78.195312 0.001953125 z M 164.08398 7.5605469 C 165.19558 7.5805119 165.31711 7.8675037 165.29492 9.015625 L 165.29492 23.716797 C 165.26847 24.992765 165.00574 25.17995 163.09375 25.167969 L 109.46875 25.177734 C 108.26875 25.177734 107.59434 25.741265 106.95703 26.529297 L 91.294922 45.166016 C 89.969593 46.515383 89.669208 47.715357 90.894531 49.166016 L 106.58008 67.464844 C 107.22007 68.340825 108.38226 68.777606 109.54492 68.765625 L 146.89453 68.746094 L 146.89453 55.486328 L 126.79492 55.486328 C 125.66961 55.440974 125.33226 55.403244 125.29492 54.166016 L 125.27148 40.853516 C 125.30928 39.616174 125.48185 39.554387 126.94336 39.566406 L 163.54492 39.566406 C 165.00756 39.577745 165.23924 39.76646 165.25391 41.117188 C 165.25391 41.117188 165.23879 83.792523 165.25391 85.367188 C 165.26902 86.941852 165.19522 87.166016 163.69531 87.166016 L 100.89453 87.166016 C 97.206506 87.203811 96.15683 87.278268 94.494141 85.566406 L 68.144531 51.916016 C 65.295183 48.117326 65.4441 46.215997 68.294922 42.916016 L 94.695312 11.966797 C 96.695325 9.3667843 98.894544 7.4863937 102.89453 7.5664062 L 163.54492 7.5664062 C 163.74659 7.5600755 163.92519 7.5576947 164.08398 7.5605469 z "
       transform="scale(0.26458333)" />
  </g>
</svg>
